<?xml version="1.0" encoding="utf-8"?>
<!-- Generator: Adobe Illustrator 23.0.5, SVG Export Plug-In . SVG Version: 6.00 Build 0)  -->
<svg version="1.1" id="Layer_1" xmlns="http://www.w3.org/2000/svg" xmlns:xlink="http://www.w3.org/1999/xlink" x="0px" y="0px"
	 viewBox="0 0 638 211.9" style="enable-background:new 0 0 638 211.9;" xml:space="preserve">
<style type="text/css">
	.st0{display:none;fill:#2B2A2A;}
	.st1{fill:url(#SVGID_1_);}
	.st2{fill:url(#SVGID_2_);}
	.st3{fill:url(#SVGID_3_);}
	.st4{fill:url(#SVGID_4_);}
	.st5{fill:#FFFFFF;}
	.st6{fill:url(#SVGID_5_);}
	.st7{fill:url(#SVGID_6_);}
	.st8{fill:url(#SVGID_7_);}
</style>
<rect y="56.4" class="st0" width="638" height="155.5"/>
<g>
	
		<linearGradient id="SVGID_1_" gradientUnits="userSpaceOnUse" x1="222.54" y1="953.2558" x2="219.6471" y2="850.0773" gradientTransform="matrix(1 0 0 1 0 -788)">
		<stop  offset="0" style="stop-color:#E1BB0A"/>
		<stop  offset="0.944" style="stop-color:#F6D953"/>
		<stop  offset="1" style="stop-color:#F7DB57"/>
	</linearGradient>
	<path class="st1" d="M215.5,138.9h-31V10.8h32c30.8,0,38.3,15.5,38.3,34.2c0,9.5-3.1,18.5-9.6,24.5c9.3,7.4,12.8,18.6,12.8,31
		C258.1,131.7,238.4,138.9,215.5,138.9z M216.3,34h-5.8v27.8h5.3c9.2,0,11.8-7.2,11.8-15C227.6,39.2,224.3,34,216.3,34z M217,83
		h-6.6v32.8h6.9c8.1,0,13.1-4.1,13.1-16.7C230.5,86.3,223.6,83,217,83z"/>
	
		<linearGradient id="SVGID_2_" gradientUnits="userSpaceOnUse" x1="340.4435" y1="949.9501" x2="337.5506" y2="846.7716" gradientTransform="matrix(1 0 0 1 0 -788)">
		<stop  offset="0" style="stop-color:#E1BB0A"/>
		<stop  offset="0.944" style="stop-color:#F6D953"/>
		<stop  offset="1" style="stop-color:#F7DB57"/>
	</linearGradient>
	<path class="st2" d="M351.3,108.6H326l-7.5,30.4h-26.1l31-128.2h31.1L387.2,139h-28.4L351.3,108.6z M330.1,85.3H347L338.4,32
		L330.1,85.3z"/>
	
		<linearGradient id="SVGID_3_" gradientUnits="userSpaceOnUse" x1="465.0455" y1="946.4566" x2="462.1526" y2="843.278" gradientTransform="matrix(1 0 0 1 0 -788)">
		<stop  offset="0" style="stop-color:#E1BB0A"/>
		<stop  offset="0.944" style="stop-color:#F6D953"/>
		<stop  offset="1" style="stop-color:#F7DB57"/>
	</linearGradient>
	<path class="st3" d="M458.8,10.8c26.1,0,39.5,11.9,39.5,38.5c0,18.3-6,29.3-15.3,35.5l19.2,54.2h-30.5l-12.1-47.1
		c-2.3,0.2-4.6,0.2-6.9,0.2V139h-25.9V10.8H458.8z M452.8,69.1C464.9,69.2,471,66,471,51.5c0-11.9-4.1-17.1-11.9-16.9h-6.3
		L452.8,69.1L452.8,69.1z"/>
	
		<linearGradient id="SVGID_4_" gradientUnits="userSpaceOnUse" x1="583.4525" y1="943.1367" x2="580.5595" y2="839.9581" gradientTransform="matrix(1 0 0 1 0 -788)">
		<stop  offset="0" style="stop-color:#E1BB0A"/>
		<stop  offset="0.944" style="stop-color:#F6D953"/>
		<stop  offset="1" style="stop-color:#F7DB57"/>
	</linearGradient>
	<path class="st4" d="M594.5,108.6h-25.3l-7.5,30.4h-26.1l31-128.2h31.1L630.4,139H602L594.5,108.6z M573.2,85.3h16.9L581.5,32
		L573.2,85.3z"/>
</g>
<g>
	<path class="st5" d="M185.5,205.3v-52.4h26.9v9.7h-16v10.9h14.4v9.7h-14.4v12.3h16.9v9.7h-27.8L185.5,205.3L185.5,205.3z"/>
	<path class="st5" d="M259.3,205.3l-17-29.1v29.1h-10.5v-52.4h8.1l17,28.5v-28.5h10.5v52.4L259.3,205.3L259.3,205.3z"/>
	<path class="st5" d="M305.6,162.6v42.7h-10.9v-42.7h-11.6v-9.7h34.3v9.7H305.6z"/>
	<path class="st5" d="M333.3,205.3v-52.4h26.9v9.7h-16v10.9h14.4v9.7h-14.4v12.3h16.9v9.7h-27.8V205.3z"/>
	<path class="st5" d="M393,152.9c11,0,16.7,4.9,16.7,15.7c0,7.5-2.5,12-6.4,14.5l8.1,22.2h-12.9l-5.1-19.3c-1,0.1-1.9,0.1-2.9,0.1
		v19.2h-10.9v-52.4H393z M390.5,176.7c5.1,0.1,7.7-1.3,7.7-7.2c0-4.9-1.7-7-5-6.9h-2.6v14.1L390.5,176.7L390.5,176.7z"/>
	<path class="st5" d="M444.2,188c-1.1,0-2.7-0.1-4.1-0.4v17.7H429v-52.4h14.1c10.4,0,16.7,5.7,16.7,17.2
		C459.9,181.1,454.1,188,444.2,188z M442,162.6h-1.9V178c0.8,0.4,1.7,0.5,2.3,0.5c4.6,0,6-2.6,6-7.5
		C448.3,165.5,446.7,162.6,442,162.6z"/>
	<path class="st5" d="M491.3,152.9c11,0,16.7,4.9,16.7,15.7c0,7.5-2.5,12-6.4,14.5l8.1,22.2h-12.9l-5.1-19.3c-1,0.1-1.9,0.1-2.9,0.1
		v19.2h-10.9v-52.4H491.3z M488.8,176.7c5.1,0.1,7.7-1.3,7.7-7.2c0-4.9-1.7-7-5-6.9h-2.6v14.1L488.8,176.7L488.8,176.7z"/>
	<path class="st5" d="M527.6,205.3v-52.4h11.1v52.4L527.6,205.3L527.6,205.3z"/>
	<path class="st5" d="M581.2,164.2c-3.2-1.5-6-2.3-8.4-2.3c-2.6,0-4.6,1.1-4.6,3.8c0,7.5,17.1,9.7,17.1,26.1
		c0,10.2-7.6,14.4-16,14.4c-4,0-9.3-1-13.1-2.8l2.7-10.9c3,1.8,7.1,3.7,10.2,3.7c2.6,0,4.6-1.5,4.6-4.1c0-7.9-16.9-10.6-16.9-25.8
		c0-9.7,7.3-14.4,15.5-14.4c3.3,0,7,0.8,11.4,2.6L581.2,164.2z"/>
	<path class="st5" d="M602.9,205.3v-52.4h26.9v9.7h-16v10.9h14.4v9.7h-14.4v12.3h16.9v9.7h-27.8L602.9,205.3L602.9,205.3z"/>
</g>
<g>
	
		<linearGradient id="SVGID_5_" gradientUnits="userSpaceOnUse" x1="151.2191" y1="943.7379" x2="92.5182" y2="902.8127" gradientTransform="matrix(1 0 0 1 0 -788)">
		<stop  offset="0" style="stop-color:#E1BB0A"/>
		<stop  offset="0.944" style="stop-color:#F6D953"/>
		<stop  offset="1" style="stop-color:#F7DB57"/>
	</linearGradient>
	<polygon class="st6" points="85.4,83.6 143,126.4 143,170.6 85.4,136.1 	"/>
	
		<linearGradient id="SVGID_6_" gradientUnits="userSpaceOnUse" x1="64.2783" y1="988.2015" x2="117.7761" y2="951.4717" gradientTransform="matrix(1 0 0 1 0 -788)">
		<stop  offset="0" style="stop-color:#E1BB0A"/>
		<stop  offset="0.944" style="stop-color:#F6D953"/>
		<stop  offset="1" style="stop-color:#F7DB57"/>
	</linearGradient>
	<polygon class="st7" points="85.4,159.5 85.4,211.9 143,170.6 143,126.4 	"/>
	
		<linearGradient id="SVGID_7_" gradientUnits="userSpaceOnUse" x1="55.3103" y1="820.0195" x2="54.6903" y2="996.1219" gradientTransform="matrix(1 0 0 1 0 -788)">
		<stop  offset="0" style="stop-color:#E1BB0A"/>
		<stop  offset="0.944" style="stop-color:#F6D953"/>
		<stop  offset="1" style="stop-color:#F7DB57"/>
	</linearGradient>
	<polygon class="st8" points="32.7,0 77.3,25.6 77.4,211.9 32.7,181.6 	"/>
</g>
</svg>
